<?xml version="1.0" encoding="utf-8"?>
<!-- Generator: Adobe Illustrator 19.2.1, SVG Export Plug-In . SVG Version: 6.00 Build 0)  -->
<svg version="1.1" id="layer" xmlns="http://www.w3.org/2000/svg" xmlns:xlink="http://www.w3.org/1999/xlink" x="0px" y="0px"
	 viewBox="0 0 652 652" style="enable-background:new 0 0 652 652;" xml:space="preserve">
<style type="text/css">
	.st0{fill:#095DA9;}
	.st1{fill:#FFFFFF;}
	.st2{fill:none;stroke:#095DA9;stroke-width:0.9342;stroke-linecap:round;stroke-linejoin:round;stroke-miterlimit:10;}
	.st3{fill:none;stroke:#095DA9;stroke-width:1.2443;stroke-linecap:round;stroke-linejoin:round;}
	.st4{fill:#FAA71C;}
</style>
<path class="st0" d="M77.4,338l-0.8,1.6l-1.2,0.1l-0.8,2.1l-1,2.2l0,3.1l-4.6,0l-0.7,0.5l-2-0.1L65,346l-1.6,0.2l-1.3,0.6l-1.7-0.2
	l-0.5,0.8l-0.4,2.1l-0.1,2.7l1,0.9l-0.1,2.7l2.1,1.9l0.2-3l2.1,1.1l0.2-1.5l1.3,0.9l0.1,1.3l1.3,0.2l1.8,1.7l0.9,1.9l2.4,0.8
	l0.3,1.1l4.3,3.1l5.8,0.8l1.6,1.9l2.9-0.6l1.8-0.4l3-0.2L93,365l-1.9-4.1l-3-3.9L88,354l-0.1-1.5l-1.5-1.7l0.1-2l0.8-1.3l-0.4-1.7
	l-1.3,0.3l0.1-3.3l-2-3.6l0.2-1.1l-0.8-1.3l0.7-1.1l1.4-0.2l0.4-1.9l1.7-0.5l0.1-1.8l-0.6-0.9l0.7-1.7L89,328l1.2,0.2l0.1,2.7
	l0.6,0.4l-0.6,0.6l0.4,1l-0.1,1.5l-0.8,0.9l0.9,3.3l0.9-1.7l0.7,0.3l1,1l3.2,0.3l0,1.1l1.2-0.3l0.5,1.2l1.1,0.7l0.8,0.2l-0.2,1.3
	l0.9-1.3l0.1,2.2l1.2,0.9l0.1-1.8l0.9-0.3l0.1-1.7l1.6-1.2l0.1-1.3l1.8,0.4l0.6-2.3l1.4-1.9l0.7-1.7l1.3,0.5l-0.1,1.3l-0.7,0.6
	l0.8,0.8l-1.2,0.6l-1,0.4l0.1,0.9l-0.4,0.6l-0.9,0.7l-0.4,1.4l-1,0.9c0,0,1.4,0.8,1.8,0.7c0.4-0.1,3-0.2,3-0.2l0.3-1.1l1-0.5
	l1.6-0.2l0.5-2.7l1.1-1.8l-1.5-1.7l-0.5,0.1l-0.4,0.7l0.1-2.2l-1-0.9l0.1-1.5l-1.2-0.8l-0.2,1.1l-0.5,0.5l-0.6-0.5l0.8-1.6l-0.1-0.7
	l-0.8,0.2l-1.2,0.4l-0.1-1l0.6,0.2l1.1-0.4l-0.3-1.6l2.8-0.2l1.4-1.3l0-1.8l0.9-0.2l0-0.7l-0.7-0.2l-0.1-1l0.9-0.6l1.7-0.7l0-0.7
	l-3.4,0.7l-0.9-0.2l0.2-1.5l-0.6,0.2l-1,1.3l-0.4,1.3l-2,1.1l-1.7-0.2l-0.5-1.4l-1,0l-0.5,1.2l-1.7,0l-2.7-1.6l-2.7-0.6l-1.7,0.8
	l-2.9,0.6l-2.2,1.4l-0.5,0.5l0.8,0.3l1.6-0.5l1.6-0.4l0.7,0.3l-0.3,0.6l-1.4,0.1l-3.3,0.7l-1.8,0.2l-0.9,1.4l-0.3,1l-0.9,0.9
	l0.3,1.9l-0.5,1.3l-0.6,0.9l-0.2,1l-0.6,0.6l-0.1,1.2l-1.1-0.4l0,2.4l-0.7,1.6l0.3,1.1l-0.7,0.7l-1.7-0.2l-1.5-0.9L77.4,338z"/>
<polygon class="st0" points="88.6,335.2 87.6,334.7 87.4,336.3 88,337.5 86.9,338.2 86.8,340.1 87.6,341.8 88.3,344.4 88.5,341.9 
	89.3,340.3 88.1,340.7 88.2,339.2 88.8,337.5 88.2,336 "/>
<polygon class="st0" points="89.2,338.2 88.9,339.1 89.8,339.8 89.5,338.9 "/>
<polygon class="st0" points="64.9,361.2 65,362.8 65.8,363.5 65.8,364.2 66.8,364.3 66.7,363.1 66,361.6 "/>
<polygon class="st0" points="78,380.4 79.2,380.6 79.3,381.2 80.2,382.1 79.2,383.3 77.9,381.4 "/>
<polygon class="st0" points="147,362.9 147.4,362.3 148.1,362.5 149.5,364.1 149.3,365.2 149.9,365.5 149.9,368.8 149,369.4 
	147.7,370.2 146.7,370.2 146.8,367.9 146.2,367.3 146.3,365.7 147.4,364.9 147.3,363.4 146.7,362.9 "/>
<path class="st0" d="M132.4,356l-3.5-0.2l2.6,1.2l3.3,1.9l4.5-0.8l0.4-2l1.1-0.6l0.6,2.1l0,2.7l0.3,2.2l-1.2,1.8l-0.1,1.5l1.9,1.2
	l0.9,1.6l-0.1,2l-1.4,1.3l-0.2,3.3l-0.6,0.9l-0.5,2.3l-2.7,2.7l-2,0.9l-1.1,1.2l-1.8-0.1l-1.1,1.4l-2.2-1l-2-1.6l-0.4-1.6l-1.4-0.1
	l-1.8-2.9l0.7-1.7l-1.2-2.5l-2.5-1.2l-2.2-2.3l-4.4-0.4l-0.8-0.9l-3.8,0.1l-1.9-1.2l0.2-1.1l-2.1-2.4l0.8-1.2l0.7-2.5l2.8-1.2l1-1.5
	l1.2-0.2l0.9-0.5l1.9,0.3l0.9-0.7l3.3-0.3l0.9,0.6l4-1l0.6-0.5l1.4,0.4l1.4-1.2l1.3-0.6l1.2-0.9l-0.5-0.5l-1.7,0l-1.6,1.3l-1.2,0
	l-0.4-1.5l2.3-1.6l2-0.1l0.4-1.2l-2.1-0.6l-1.1-0.3l-0.7,0.7l0.5,0.5l-0.5,0.4l-1.3-0.6l0,1.1l-0.2,1.2l0.2,0.6l-0.4,0.5l0.5,0.6
	l-0.9,0.6l-0.1-0.5l0.1-0.6l-1.1-0.7l-1.2-0.8c0,0-1.7-0.3-1.7,0.1c0,0.4,0.3,1.1,0.3,1.1l1.4,0.9l0.9,0.3l0.1,0.6L122,354l-0.4,0.5
	l-0.4,0.8l-0.3-0.5l-0.1-1l-1.1-0.4l-1.4-0.1l-1.8-0.1l-0.1,1.9l-0.7,0.6L114,356l-0.6,0.2l-0.6-0.6l-0.6-0.6l0.3-1.1l0.3-0.4
	l0.8-0.3l1.4-0.1l0.6-0.9l-1.3-0.9l1-0.9l1.5-0.4l0.3-1.6l0.7-0.3l0,0.5l-0.4,0.2l0.1,0.3l2-0.4l1-0.4l0.2-1.4l2-0.9l-0.2-0.7
	l-1.1-0.2l-0.5-1.4l-0.7,0l-0.6,0.7l0.1,1.5l-1,1.7l-0.8,0l0-1l-1.2,1.1l0.1-1.4l0.2-1.3l1.5-1.2l0.7-2.9l1-0.7l1.7,0l0.7-0.5
	l-0.3-1.2l0.1-1.2l0.4-0.5l0.2-0.9l-1-0.2l0-0.7l0.6-0.6l-0.5-1.4l-2.1-0.3l0.1-0.6l0.7-0.5l1.2-0.4l-0.7-1.5v-1.6l-1.1-0.1
	l-0.8-0.7l0.4-0.6l0.4-1.6l-2-0.1l-0.6,0.3l-2.2-1.7l-0.7-1.2l0.6-0.9l1.6-0.4l0.5-0.8l-1.2-0.7l0.3-0.7l0.9,0.5l2.3,0.3l0.9-1.2
	l-0.1-1.2l2.5-0.3c0,0,0.1,0.7,0.3,0.6c0.2-0.2-0.5,0.9-0.5,0.9l-1.2,1.2l0.7,0.7l0.2,0.4l1,0.3l0.1,0.7l1.3-0.4l0.8-0.2
	c0,0-0.3-2.5,0.2-2.5c0.4,0,2.1-0.3,2.1-0.3l1.8,0.2l0.7,1.2l2.3,0.1l-0.3-2l1.6-0.4l2.1,0.3l-1.8,1.2l-1.2,2.1l0.9,0.6l0.1,0.8
	l0.7-1.9l-0.1-0.7l0.9-0.3l0.4,1.7l0.9-1.4l-0.5-0.7l0.9-0.5l1,0.8l1.2,0.4l1.6-0.1l1.2,1.8l0,0.5l1.4,0.4l0.2,1.5l0.8-0.5l1.2-1.1
	l1.1,0.3l1.4,1.8l-0.3,2.8l1.7-0.2l0.1-1.5l0.7-0.2l0.3-0.6l0.5-0.3l0.4-0.9l0.3,2.2l-0.6,0.5l-0.4,0.6l-0.3,0.9l-1.2,0.3l-2.2,0.1
	l-0.6,1.6l0.1,1.1l-1.1,1.2l-0.2,0.8l-1.4,1.2l0.1,0.8l0.9,0.4l0.4,1.2l0.5,0.1l0.4,0.9l0.2,2l0.7,0.2l0.1,0.7l0.9,0.3l0.6,1.3
	l-0.6,0.5l-1.3,0.1l-2.4,1.1l-0.8-0.5l-1.2-0.2l0,1l-1.9,0l-1.7,2.1l-1.2,2.2l-1.2-0.1l-0.6,1.2l-1.9,0.5l0,0.9l0.8,0.5l1.2-0.1l1-2
	l2.4-0.6l0.6,2.3l-1.4,2.1l0,1.8l-0.7,1.9l-0.3,0.5l-0.4-0.3l-1.4,0.4L135,357l-0.5,0.5L132.4,356z"/>
<polygon class="st0" points="142.5,352.3 141.9,353 142,354.2 142.5,354.7 143,354.3 142.9,353 143.1,352.7 "/>
<path class="st0" d="M148.9,340.1l0.5-1l1.3,0.1l0.1,0.6c0,0,1-0.1,0.9,0c-0.1,0.2-0.1,0.6-0.1,0.6l-0.5,0.8l-0.5-0.1L148.9,340.1z"
	/>
<path class="st0" d="M151.8,331.6l0.1-3.5l1.1-0.2l0.4-2.1l-0.5-1.7l1.1-1.3l-0.7-1.8l-1.4-0.7l-2,0.2l-0.2-2l-1.7-1.1l0.1-0.9
	l0.9,0.2l-1.3-0.9l1.3-0.2l0.2-1.7l-1.7-0.9l-0.4-2l-1.9,0.3l-0.2-0.6l0.4-0.2l0.2-1.3l-1.4-0.9l-0.1-1.8l-2.2-1.4l-0.3-1.8
	l-0.7-0.6l-0.8-0.2l-0.8-1.5l0.5-0.8l-0.5-0.9l-1.8-0.5l1-1.4l-1.6-1.6l0-0.4l2.6,0.3l0.3,0.6l0,2l1.2,0.8l1.7,0.6l1.9,2.5l-1,0
	l-0.6,0l1.3,2l0.4,0.9l1.1,0.2l0.2,1.1l-0.1,1.2l0.9,0.2l1,1.4l1,1l0.9,2.3l0.6-0.3l2.2,5.4l1.2-0.9c0,0-0.7-0.8-0.6-1.2
	c0.1-0.4-0.8-1.6-0.6-1.6c0.2,0,0.7-0.2,0.7-0.2s0.9,0.9,0.8,1.2c-0.1,0.2,0.5,1.3,0.5,1.3l0.2,2.8l0.5,1.5l-0.2,2.5l-0.6,0.8
	l0.3,0.9l-0.2,3.2l-0.9,0.6l-1.2,2.7L151.8,331.6z"/>
<path class="st0" d="M149.5,308l0.9,0.2l0.6,1l-0.1,1.2c0,0-0.5,0.1-0.6-0.2c-0.1-0.3-0.4-0.8-0.4-0.8s-0.6-0.2-0.6-0.4
	C149.5,308.8,149.5,308,149.5,308"/>
<polygon class="st0" points="151.5,310.6 152.1,310.9 152.5,311.5 152.1,313.2 151.6,313 151.5,312.1 151,311.7 "/>
<path class="st0" d="M125,316.9l1.2,0.2l0.5-0.2l0.8,0.2l0.3,1.1l2.2-1.8l1.9-0.6c0,0,1.6,1.2,1.8,1.2c0.2,0,1.1,0.1,1.1,0.1l3-0.1
	l-2.2-1.8l-1.4-0.1l-0.4,0.3l0-0.7l-2-0.5l-1.1,0.3l-0.3,0.8l-1.3,0.8l-1.6-0.2l-0.3-0.5l-0.5-0.1l-0.1,0.6l-0.7-0.1l-0.1,0.6
	l-0.7,0.1L125,316.9z"/>
<polygon class="st0" points="138.8,318.2 139.4,317.6 140.6,317.7 140.9,318.3 140.2,319 139.5,319 139.4,318.6 "/>
<polygon class="st0" points="141.4,318.6 141.8,317.4 142.5,317 142.5,315.9 143,315.4 143,314.6 142.6,314.4 143.9,313.7 
	143.3,313 144.6,312.3 145.1,312.5 145.3,314.5 144.2,314.5 144.4,315.5 143.9,315.6 143.8,316.9 144.5,316.3 145.4,316.3 
	146.4,316.6 146.1,317.7 143.8,317.4 143.9,318 143.1,318.4 "/>
<path class="st0" d="M129.1,290.1c-0.1,0.2-0.1,1.3-0.1,1.3l2,3l1.4,0.1l0.4,0.4h1.3l-1-1.5L132,293l-1-1.8l-1.4-0.6l0-0.5
	L129.1,290.1z"/>
<polygon class="st0" points="134.6,295.9 134.6,297 135.3,297.5 137.3,297.5 136.7,296.6 135.7,296.4 135.5,295.9 "/>
<path class="st0" d="M148.8,289l-1.3-0.1l-0.6-0.7l-1.4,0.4l-1.6,0.2l-0.2,0.7l-1.9,1l0,0.7l1.1,0.9l1.4,1l0.2,1.8l0.9,1.6l-1,1.1
	l1.4,0.9l0.1,1.4l1.4-0.5l2.1,1l-0.2,1.1l-0.6,1.2l2.1,2.8l0.9-0.3l0.5,0.6l0.6-0.3l0.2,1.3c0,0,0.1,0.9,0.5,1
	c0.3,0.1,1.5,0.1,1.5,0.1l0,0.4l1.6,0.5c0,0,0.1,0.5,0.1,0.8c0,0.3,0.6,0.3,0.6,0.3l1.1,0.9l0.6,1.6c0,0,0.8,0.6,1.1,0.6
	c0.3,0,1.2,0,1.2,0l0.6-1.2l1.7-0.8l-0.1-1.4l-1.3-2.8l-4.2-6l-0.8-1.5l-2.8-3l0.6-1.2l-0.4-0.5l-0.8,0c0,0-0.3-1.4-0.3-1.6
	c0-0.2-1.5-2.1-1.5-2.1l-0.2-1.1L151,290l-0.5,0.4l-0.4-0.2l-0.8-0.2L148.8,289z"/>
<polygon class="st0" points="145.1,284.3 146.9,285 147.6,286.2 148.7,286.3 148.2,285.9 148.2,284.2 147.8,283.7 145.4,283.8 "/>
<path class="st0" d="M175.5,341c0,0-1,0.8-1,1c0,0.2,0,0.9,0,0.9l0.8-0.1l0.4-0.4L175.5,341z"/>
<polygon class="st0" points="169,346.7 168.8,347.2 168,347.2 167.9,349.2 168.9,348.6 169.2,348 169.6,347.9 169.7,347.1 
	169.2,347.3 "/>
<polygon class="st0" points="170.7,355.7 170,355.6 169.7,356.3 169.1,356.2 168.9,357 168.4,357.2 168.5,358.1 169.5,358 
	170.6,356.8 "/>
<polygon class="st0" points="172.5,354.4 171.8,354 171.5,355.3 172.1,355.8 "/>
<polygon class="st0" points="172.9,352.6 173.4,352.8 172.7,353.5 172.5,353.3 "/>
<polygon class="st0" points="114.8,347.9 114.6,348.1 114.5,348.7 114.8,348.8 114.4,349.2 114.3,350 114,350.5 114.6,350.4 
	115.2,350.2 115.4,350.1 115.1,349.8 115.2,349.1 115.1,348.6 115.1,347.9 "/>
<polygon class="st0" points="114.2,349.2 114.2,349.5 114,350 113.8,349.8 113.8,349.4 "/>
<path class="st0" d="M130.8,346.6c0,0-0.6,0.6-0.3,0.6c0.2,0,0.6,0.4,0.6,0.4l0.9,0l0.1,1l0.9-0.3l0.6-0.1l0.7-1.3l-0.6-0.6
	l-1.6,0.1l-1.1-0.1L130.8,346.6z"/>
<polygon class="st0" points="128.8,344.9 129.8,344.9 130.9,345.5 130.7,346.1 129.4,346 129.2,345.4 "/>
<polygon class="st0" points="103.2,329.9 103.9,330.2 104.2,331.3 104.1,331.9 104.6,332.2 104.6,334.6 103.6,334.8 103.2,334.1 
	103.7,333.4 103.6,332 102.9,333 101.2,333.9 101.5,332.7 102.5,332.3 103.4,331.5 103,330.5 101.6,330.2 101.9,329.4 "/>
<path class="st0" d="M48.3,299.2c0,0.6-1.7,3.1-1.6,2.9c6.3-9.7,9.5-7.9,16.4-13.8C62,299.2,49.5,306,43.5,310.6
	c-2.9-16.1,0.6-30.2,9-42.5C50.2,280.2,49.6,281,48.3,299.2"/>
<path class="st0" d="M50.7,294.5c0.7-11.2,8.1-18.2,16.8-22.9C65,279,61.1,288.7,50.7,294.5"/>
<path class="st0" d="M117.4,410.6c15.5,6.6,21.6,12,21.4,15.7c-0.1,2.4-6.4-5-10.2-7.6c-4.3-3.3-8.9-6.2-13.5-7.1
	c-4.5-0.9-37.5,12.3-53.4,0.9C78.4,411.3,99.9,403.2,117.4,410.6 M40.8,321.5c1.2-9.1-2.1-23.7-2.2-34.7c-8.8,14-6,33.6,0.1,48
	c5.3-10.1,15.4-18,16.2-29.4C48.8,308.7,43,315.6,40.8,321.5 M39.6,341.9c-5-9-7.6-18.7-11.3-28.5c-2.9,17.4,3.6,29,13.3,39.9
	c4-8.6,10-19.1,6.7-28.3C43.2,329.9,41.6,335.6,39.6,341.9 M45,365.2c-3.8-9.6-11.6-15.9-17.9-25.7c1.7,17.4,8.6,28.4,23.6,38.7
	c0.8-12,4-24.6-1.3-35.8C46,349.2,44.9,353.7,45,365.2 M67,396.9c-3.4-12-3.6-25.9-12.9-34.8c1.1,8.7-1.6,11.6,2,24.7
	c-9.9-10-16.2-11.2-22.1-20.1l5.3,13.9C44.3,391.4,56.3,395,67,396.9 M87.1,406.7c-9.3-3.6-9.4-23.1-21.5-28c0,0,0,0,0,0.2
	c5.1,8.7,1.7,17.1,8.9,23.1c-7.5-4.9-20.1-3.1-26.3-7.2c3.4,4.4,7.8,9.3,12.6,12C68.9,411.3,78.1,406.2,87.1,406.7"/>
<path class="st0" d="M121.5,410.6c17.4-7.5,39,0.7,55.7,1.8c-15.9,11.4-48.9-1.7-53.4-0.9c-4.6,0.9-9.2,3.8-13.5,7.1
	c-3.8,2.6-10.1,10-10.2,7.6C99.9,422.6,106,417.2,121.5,410.6 M190.5,299.2c0,0.6,1.7,3.1,1.6,2.9c-6.3-9.7-9.5-7.9-16.3-13.8
	c1.1,10.9,13.5,17.7,19.6,22.3c2.9-16.1-0.6-30.2-9-42.5C188.6,280.2,189.2,281,190.5,299.2 M188.1,294.5
	c-0.7-11.2-8.1-18.2-16.8-22.9C173.8,279,177.7,288.7,188.1,294.5 M198,321.5c-2.2-5.9-8-12.8-14.1-16.1
	c0.8,11.4,10.9,19.3,16.2,29.4c6.1-14.4,8.9-34,0.1-48C200.1,297.8,196.8,312.4,198,321.5 M199.2,341.9c-2-6.3-3.6-12-8.6-16.9
	c-3.4,9.3,2.7,19.7,6.7,28.3c9.8-10.9,16.2-22.5,13.3-39.9C206.8,323.2,204.2,332.9,199.2,341.9 M193.8,365.2
	c0.1-11.5-1-15.9-4.3-22.7c-5.3,11.2-2.1,23.8-1.3,35.8c15-10.3,21.9-21.3,23.6-38.7C205.4,349.2,197.6,355.6,193.8,365.2
	 M171.9,396.9c10.6-1.9,22.6-5.4,27.7-16.3l5.3-13.9c-5.9,8.9-12.2,10.1-22.1,20.1c3.6-13.2,0.8-16,2-24.7
	C175.5,371,175.2,384.9,171.9,396.9 M151.8,406.7c8.9-0.5,18.2,4.6,26.3,0c4.7-2.7,9.2-7.6,12.6-12c-6.1,4.1-18.7,2.3-26.3,7.2
	c7.2-6,3.8-14.5,8.9-23.1c0-0.2,0-0.2,0-0.2C161.1,383.6,161,403.1,151.8,406.7"/>
<path class="st0" d="M119.4,270.5c-35.7,0-64.7,29-64.7,64.7c0,35.7,29,64.7,64.7,64.7s64.7-29,64.7-64.7
	C184.1,299.5,155.1,270.5,119.4,270.5 M119.4,348.6c-7.4,0-13.5-6-13.5-13.5c0-7.4,6-13.5,13.5-13.5c7.4,0,13.4,6,13.4,13.5
	C132.8,342.6,126.8,348.6,119.4,348.6 M129.3,324.4c-2.5-2.3-5.7-3.7-9.3-3.9v-11.4c6.7,0.1,12.8,2.9,17.4,7.2L129.3,324.4z
	 M118.8,320.6c-3.6,0.1-6.8,1.6-9.3,3.9l-8-8c4.5-4.3,10.6-7.1,17.4-7.2V320.6z M108.7,325.2c-2.3,2.5-3.7,5.7-3.9,9.3H93.4
	c0.1-6.7,2.9-12.8,7.2-17.4L108.7,325.2z M104.8,335.7c0.1,3.6,1.6,6.9,3.9,9.3l-8,8c-4.3-4.5-7-10.6-7.2-17.4H104.8z M109.5,345.9
	c2.5,2.3,5.7,3.7,9.3,3.9v11.4c-6.7-0.1-12.8-2.9-17.4-7.2L109.5,345.9z M120,349.8c3.6-0.1,6.9-1.6,9.3-3.9l8,8
	c-4.5,4.3-10.6,7.1-17.4,7.2V349.8z M130.1,345.1c2.3-2.5,3.7-5.7,3.9-9.3h11.4c-0.1,6.7-2.9,12.8-7.2,17.4L130.1,345.1z M134,334.6
	c-0.1-3.6-1.6-6.8-3.9-9.3l8-8c4.3,4.5,7.1,10.6,7.2,17.4H134z M138.1,315.6c-4.7-4.6-11.1-7.4-18.2-7.5v-11.4
	c10.2,0.2,19.4,4.3,26.2,10.9L138.1,315.6z M118.8,308c-7,0.2-13.4,3-18.2,7.5l-8-8c6.8-6.6,16-10.7,26.2-10.9V308z M99.8,316.4
	c-4.5,4.8-7.4,11.1-7.5,18.2H80.9c0.2-10.2,4.3-19.4,10.9-26.2L99.8,316.4z M92.3,335.7c0.1,7,3,13.4,7.5,18.2l-8,8
	c-6.6-6.8-10.7-16-10.9-26.2H92.3z M100.6,354.7c4.7,4.6,11.1,7.4,18.2,7.5v11.4c-10.2-0.2-19.4-4.3-26.2-10.9L100.6,354.7z
	 M120,362.3c7-0.1,13.4-3,18.2-7.5l8,8c-6.8,6.6-16,10.7-26.2,10.9V362.3z M139,353.9c4.5-4.7,7.4-11.1,7.5-18.2h11.4
	c-0.2,10.2-4.3,19.4-10.9,26.2L139,353.9z M146.5,334.6c-0.1-7-3-13.4-7.5-18.2l8-8c6.6,6.8,10.7,16,10.9,26.2H146.5z M147,306.7
	c-7-6.8-16.5-11.1-27-11.2v-11.4c13.6,0.2,26,5.7,35.1,14.5L147,306.7z M118.8,295.5c-10.5,0.2-20,4.4-27,11.2l-8-8
	c9.1-8.9,21.4-14.4,35.1-14.5V295.5z M91,307.5c-6.8,7-11.1,16.5-11.2,27H68.4c0.2-13.6,5.7-26,14.5-35.1L91,307.5z M79.7,335.7
	c0.2,10.5,4.4,20,11.2,27l-8,8c-8.9-9.1-14.4-21.4-14.5-35.1H79.7z M91.8,363.6c7,6.8,16.5,11.1,27,11.2v11.4
	c-13.6-0.1-26-5.7-35.1-14.5L91.8,363.6z M120,374.8c10.5-0.2,20-4.4,27-11.2l8,8c-9.1,8.9-21.4,14.4-35.1,14.5V374.8z M147.8,362.8
	c6.8-7,11.1-16.5,11.2-27h11.4c-0.2,13.6-5.7,26-14.5,35.1L147.8,362.8z M159,334.6c-0.2-10.5-4.4-20-11.2-27l8-8
	c8.9,9.1,14.4,21.4,14.5,35.1H159z M155.8,297.9c-9.3-9.1-21.9-14.7-35.9-14.9v-11.4c17.1,0.2,32.6,7.1,43.9,18.2L155.8,297.9z
	 M118.8,283c-13.9,0.1-26.6,5.8-35.9,14.9l-8-8c11.3-11.1,26.8-18.1,43.9-18.2V283z M82.1,298.7c-9.1,9.3-14.7,21.9-14.9,35.9H55.8
	c0.2-17.1,7.1-32.6,18.2-43.9L82.1,298.7z M67.2,335.7c0.2,13.9,5.8,26.6,14.9,35.9l-8,8c-11.1-11.3-18.1-26.8-18.2-43.9H67.2z
	 M82.9,372.4c9.3,9.1,21.9,14.7,35.9,14.9v11.4c-17.1-0.2-32.6-7.1-43.9-18.2L82.9,372.4z M120,387.3c13.9-0.2,26.6-5.8,35.9-14.9
	l8,8c-11.3,11.1-26.8,18.1-43.9,18.2V387.3z M156.7,371.6c9.1-9.3,14.7-21.9,14.9-35.9h11.4c-0.2,17.1-7.1,32.6-18.2,43.9
	L156.7,371.6z M171.5,334.6c-0.2-13.9-5.8-26.6-14.9-35.9l8-8c11.1,11.3,18.1,26.8,18.2,43.9H171.5z"/>
<path class="st0" d="M257.8,296.5h-0.1l-8.1,22.2h-0.7l-11.3-30.2h3.7l8.1,21.6h0.1l7.9-21.8h0.7l8,21.8h0.1l8-21.6h3.6l-11.3,30.2
	h-0.7L257.8,296.5z M283.9,314.5c2.8,2.9,6.6,4.4,11.4,4.4c4.5,0,8.2-1.5,11.1-4.4c3-3,4.4-6.6,4.4-11c0-4.4-1.5-8.1-4.4-11
	c-3-3-6.6-4.5-11.1-4.5c-4.3,0-8,1.5-11.1,4.5c-3,3-4.5,6.7-4.5,11C279.7,307.9,281.1,311.6,283.9,314.5 M286.7,312.3
	c-2.1-2.3-3.2-5.3-3.2-8.9c0-3.5,1.1-6.4,3.3-8.8c2.2-2.4,5.1-3.5,8.5-3.5c3.4,0,6.3,1.2,8.5,3.6c2.2,2.4,3.4,5.3,3.4,8.8
	c0,3.4-1.1,6.4-3.3,8.8c-2.2,2.4-5,3.5-8.5,3.5C291.8,315.7,288.9,314.6,286.7,312.3 M316.8,288.4v30h3.7v-27h6.5
	c4.4,0,7.3,2.5,7.3,6.7c0,3.8-3.5,6.9-9.9,7.2v0.6l10.6,12.6h4.5l-9.8-11.2c2.5-0.7,4.5-1.9,6-3.6c1.5-1.8,2.2-3.7,2.2-5.9
	c0-3-1-5.2-3.1-6.9c-2-1.7-4.5-2.5-7.3-2.5H316.8z M344.1,318.4h19.3v-3.1h-15.7v-26.9h-3.7V318.4z M378.4,318.4
	c4.4,0,7.9-1.4,10.4-4.2c2.5-2.8,3.8-6.5,3.8-10.9c0-4.5-1.3-8.1-4-10.8c-2.6-2.7-6.2-4.1-10.8-4.1h-10.3v30H378.4z M386.2,294.8
	c1.9,2.2,2.8,5.1,2.8,8.6c0,3.6-0.9,6.5-2.7,8.7c-1.8,2.2-4.4,3.3-7.9,3.3h-7.1v-23.9h6.7C381.6,291.4,384.4,292.5,386.2,294.8
	 M267,345.9l0.1,0.1c0,2.5,0,6,0,10.7v10.6h3.5v-30.2h-0.8l-14,19.1l-14.1-19.1h-0.8v30.2h3.5v-20.9l0.1-0.1l10.9,14.5h0.7
	L267,345.9z M281.5,364.2V353h14.3v-3h-14.3v-9.7H297v-3h-19.2v30h20.3v-3.1H281.5z M323.1,337.3h-22.8v3.1h9.6v27h3.7v-27h9.5
	V337.3z M331.1,364.2V353h14.3v-3h-14.3v-9.7h15.5v-3h-19.2v30h20.3v-3.1H331.1z M355.7,363.4c2.8,2.9,6.6,4.4,11.4,4.4
	c4.5,0,8.2-1.5,11.1-4.4c2.9-2.9,4.4-6.6,4.4-11c0-4.4-1.5-8.1-4.4-11c-3-3-6.6-4.5-11.1-4.5c-4.3,0-8,1.5-11.1,4.5
	c-3,3-4.5,6.7-4.5,11C351.5,356.8,352.9,360.5,355.7,363.4 M358.5,361.2c-2.1-2.3-3.2-5.3-3.2-8.9c0-3.5,1.1-6.4,3.3-8.8
	c2.2-2.4,5.1-3.5,8.5-3.5c3.4,0,6.3,1.2,8.5,3.6c2.2,2.4,3.4,5.3,3.4,8.8c0,3.5-1.1,6.4-3.3,8.8c-2.2,2.4-5,3.5-8.5,3.5
	C363.6,364.6,360.7,363.5,358.5,361.2 M388.6,337.4v30h3.7v-27h6.5c4.4,0,7.3,2.5,7.3,6.7c0,3.8-3.4,6.9-9.9,7.2v0.6l10.6,12.6h4.5
	l-9.8-11.2c2.5-0.7,4.5-1.9,6-3.6c1.5-1.8,2.2-3.7,2.2-5.9c0-3-1-5.2-3.1-6.9c-2-1.7-4.5-2.5-7.3-2.5H388.6z M418.8,363.4
	c2.8,2.9,6.6,4.4,11.4,4.4c4.5,0,8.2-1.5,11.1-4.4c3-2.9,4.4-6.6,4.4-11c0-4.4-1.5-8.1-4.4-11c-3-3-6.6-4.5-11.1-4.5
	c-4.3,0-8,1.5-11.1,4.5c-3,3-4.5,6.7-4.5,11C414.7,356.8,416.1,360.5,418.8,363.4 M421.6,361.2c-2.1-2.3-3.2-5.3-3.2-8.9
	c0-3.5,1.1-6.4,3.3-8.8c2.2-2.4,5.1-3.5,8.5-3.5c3.4,0,6.3,1.2,8.5,3.6c2.2,2.4,3.4,5.3,3.4,8.8c0,3.5-1.1,6.4-3.3,8.8
	c-2.2,2.4-5,3.5-8.5,3.5C426.7,364.6,423.8,363.5,421.6,361.2 M451.8,367.3h19.3v-3.1h-15.7v-26.9h-3.7V367.3z M476.4,363.4
	c2.8,2.9,6.6,4.4,11.4,4.4c4.5,0,8.2-1.5,11.1-4.4c3-2.9,4.4-6.6,4.4-11c0-4.4-1.5-8.1-4.4-11c-3-3-6.6-4.5-11.1-4.5
	c-4.3,0-8,1.5-11.1,4.5c-3,3-4.5,6.7-4.5,11C472.2,356.8,473.6,360.5,476.4,363.4 M479.2,361.2c-2.1-2.3-3.2-5.3-3.2-8.9
	c0-3.5,1.1-6.4,3.3-8.8c2.2-2.4,5.1-3.5,8.5-3.5c3.5,0,6.3,1.2,8.5,3.6c2.2,2.4,3.4,5.3,3.4,8.8c0,3.5-1.1,6.4-3.3,8.8
	c-2.2,2.4-5,3.5-8.5,3.5C484.2,364.6,481.3,363.5,479.2,361.2 M512.6,341.3c-3,3-4.5,6.8-4.5,11.3c0,4.4,1.3,8,4,10.9
	c2.7,2.9,6.4,4.3,11.1,4.3c4.1,0,7.5-0.6,10-1.8v-13.5h-3.4v11.1c-1.9,0.8-3.9,1.2-6,1.2c-3.8,0-6.8-1.1-8.8-3.4
	c-2-2.3-3.1-5.2-3.1-8.8c0-3.9,1.2-6.9,3.5-9.2c2.3-2.3,5.2-3.4,8.7-3.4c2.9,0,5.5,0.6,7.9,1.9v-3.5c-2-1.1-4.7-1.6-8.1-1.6
	C519.3,336.7,515.6,338.2,512.6,341.3 M543.8,337.3h-3.6v30h3.6V337.3z M574.6,362.3c-2.8,1.5-5.6,2.3-8.4,2.3
	c-3.8,0-6.7-1.1-8.9-3.3c-2.1-2.2-3.2-5.2-3.2-8.9c0-3.9,1.2-6.9,3.5-9.2c2.4-2.3,5.3-3.4,8.8-3.4c2.6,0,5,0.5,7.1,1.6v-3.4
	c-1.8-0.9-4.3-1.4-7.5-1.4c-4.5,0-8.2,1.5-11.2,4.5c-3,3-4.5,6.7-4.5,11.2c0,4.5,1.4,8.2,4.1,11c2.7,2.9,6.5,4.3,11.4,4.3
	c3.6,0,6.5-0.7,8.8-2.1V362.3z M603.5,367.3L590.4,337h-0.7l-13.3,30.3h3.6l2.8-6.8h14.1l2.9,6.8H603.5z M590,344.2l5.9,13.7H584
	l5.9-13.7H590z M607.8,367.3h19.3v-3.1h-15.7v-26.9h-3.7V367.3z M243.8,412.3c2.8,2.9,6.6,4.4,11.4,4.4c4.5,0,8.2-1.5,11.1-4.4
	c3-3,4.4-6.6,4.4-11c0-4.4-1.5-8.1-4.4-11c-3-3-6.6-4.5-11.1-4.5c-4.3,0-8,1.5-11.1,4.5c-3,3-4.5,6.7-4.5,11
	C239.6,405.7,241,409.4,243.8,412.3 M246.6,410.1c-2.1-2.3-3.2-5.3-3.2-8.9c0-3.5,1.1-6.4,3.3-8.8c2.2-2.4,5.1-3.5,8.5-3.5
	c3.4,0,6.3,1.2,8.5,3.6c2.2,2.4,3.4,5.3,3.4,8.8c0,3.5-1.1,6.4-3.3,8.8c-2.2,2.4-5,3.5-8.5,3.5C251.6,413.6,248.7,412.4,246.6,410.1
	 M276.7,386.3v30h3.7v-27h6.5c4.4,0,7.3,2.5,7.3,6.7c0,3.8-3.5,6.9-9.9,7.2v0.6l10.6,12.6h4.5l-9.8-11.2c2.5-0.7,4.5-1.9,6-3.6
	c1.5-1.8,2.2-3.7,2.2-5.9c0-3-1-5.2-3.1-6.9c-2-1.7-4.5-2.5-7.3-2.5H276.7z M307.2,390.2c-3,3-4.5,6.8-4.5,11.3c0,4.4,1.3,8,4,10.9
	c2.7,2.9,6.4,4.3,11.1,4.3c4.1,0,7.5-0.6,10-1.8v-13.5h-3.4v11.1c-1.9,0.8-3.9,1.2-6,1.2c-3.8,0-6.8-1.1-8.8-3.4
	c-2-2.3-3.1-5.2-3.1-8.8c0-3.9,1.2-6.9,3.5-9.2c2.3-2.3,5.2-3.4,8.7-3.4c2.9,0,5.5,0.6,7.9,1.9v-3.4c-2-1.1-4.7-1.6-8.1-1.6
	C314,385.6,310.2,387.1,307.2,390.2 M358.5,416.2l-13.2-30.3h-0.7l-13.3,30.3h3.6l2.8-6.8h14.1l2.9,6.8H358.5z M344.9,393.1
	l5.9,13.7h-11.9l5.9-13.7H344.9z M365.8,393.5h0.1l20.9,22.9h0.8v-30.2h-3.6v22.5h-0.2l-20.9-22.8h-0.8v30.4h3.6V393.5z M399,386.2
	h-3.6v30h3.6V386.2z M405.8,386.2v3h14.3L404,415.8v0.5h21.7v-3h-16l16-26.5v-0.5H405.8z M454.5,416.2l-13.2-30.3h-0.7l-13.3,30.3
	h3.6l2.8-6.8h14.1l2.9,6.8H454.5z M441,393.1l5.9,13.7h-11.9l5.9-13.7H441z M475.4,386.2h-22.8v3.1h9.6v27h3.7v-27h9.5V386.2z
	 M483.7,386.2h-3.6v30h3.6V386.2z M494.4,412.3c2.8,2.9,6.6,4.4,11.4,4.4c4.5,0,8.2-1.5,11.1-4.4c3-3,4.4-6.6,4.4-11
	c0-4.4-1.5-8.1-4.4-11c-3-3-6.6-4.5-11.1-4.5c-4.3,0-8,1.5-11.1,4.5c-3,3-4.5,6.7-4.5,11C490.2,405.7,491.6,409.4,494.4,412.3
	 M497.2,410.1c-2.1-2.3-3.2-5.3-3.2-8.9c0-3.5,1.1-6.4,3.3-8.8c2.2-2.4,5.1-3.5,8.5-3.5c3.5,0,6.3,1.2,8.5,3.6
	c2.2,2.4,3.4,5.3,3.4,8.8c0,3.5-1.1,6.4-3.3,8.8c-2.2,2.4-5,3.5-8.5,3.5C502.3,413.6,499.4,412.4,497.2,410.1 M531,393.5h0.1
	l20.9,22.9h0.8v-30.2h-3.6v22.5H549l-20.9-22.8h-0.8v30.4h3.6V393.5z"/>
<path class="st1" d="M164.9,270.1l-30.9-8.2l5.3-10.4c0.1-0.2,0.1-0.5-0.1-0.7c-0.2-0.2-0.5-0.2-0.7-0.1l-10.4,5.3l-8.2-30.9
	c-0.1-0.3-0.3-0.4-0.6-0.4c-0.3,0-0.5,0.2-0.6,0.4l-8.2,30.9l-10.4-5.3c-0.2-0.1-0.5-0.1-0.7,0.1c-0.2,0.2-0.2,0.5-0.1,0.7l5.3,10.4
	l-30.9,8.2c-0.3,0.1-0.4,0.3-0.4,0.6c0,0.3,0.2,0.5,0.4,0.6l30.9,8.2l-5.3,10.4c-0.1,0.2-0.1,0.5,0.1,0.7c0.2,0.2,0.5,0.2,0.7,0.1
	l10.4-5.3l8.2,30.9c0.1,0.3,0.3,0.4,0.6,0.4c0.3,0,0.5-0.2,0.6-0.4l8.2-30.9l10.4,5.3c0.2,0.1,0.5,0.1,0.7-0.1
	c0.2-0.2,0.2-0.5,0.1-0.7l-5.3-10.4l30.9-8.2c0.3-0.1,0.4-0.3,0.4-0.6C165.3,270.4,165.2,270.1,164.9,270.1"/>
<path class="st2" d="M119.4,316.4c-0.6,0-1.1-0.4-1.2-1l-7.6-30.2l-9.7,5.5c-0.5,0.3-1.1,0.2-1.5-0.2c-0.4-0.4-0.5-1-0.2-1.5
	l5.5-9.7l-30.2-7.6c-0.6-0.1-1-0.6-1-1.2c0-0.6,0.4-1.1,1-1.2l30.2-7.6l-5.5-9.7c-0.3-0.5-0.2-1.1,0.2-1.5c0.4-0.4,1-0.5,1.5-0.2
	l9.7,5.5l7.6-30.2c0.1-0.6,0.6-0.9,1.2-0.9c0.6,0,1.1,0.4,1.2,1l7.6,30.2l9.7-5.5c0.5-0.3,1.1-0.2,1.5,0.2c0.4,0.4,0.5,1,0.2,1.5
	l-5.5,9.7l30.2,7.6c0.6,0.1,1,0.6,1,1.2c0,0.6-0.4,1.1-1,1.2l-30.2,7.6l5.5,9.7c0.3,0.5,0.2,1.1-0.2,1.5c-0.4,0.4-1,0.5-1.5,0.2
	l-9.7-5.5l-7.6,30.2C120.5,316,120,316.4,119.4,316.4z"/>
<path class="st3" d="M119.4,316.4c-0.6,0-1.1-0.4-1.2-1l-7.6-30.2l-9.7,5.5c-0.5,0.3-1.1,0.2-1.5-0.2c-0.4-0.4-0.5-1-0.2-1.5
	l5.5-9.7l-30.2-7.6c-0.6-0.1-1-0.6-1-1.2c0-0.6,0.4-1.1,1-1.2l30.2-7.6l-5.5-9.7c-0.3-0.5-0.2-1.1,0.2-1.5c0.4-0.4,1-0.5,1.5-0.2
	l9.7,5.5l7.6-30.2c0.1-0.6,0.6-0.9,1.2-0.9c0.6,0,1.1,0.4,1.2,1l7.6,30.2l9.7-5.5c0.5-0.3,1.1-0.2,1.5,0.2c0.4,0.4,0.5,1,0.2,1.5
	l-5.5,9.7l30.2,7.6c0.6,0.1,1,0.6,1,1.2c0,0.6-0.4,1.1-1,1.2l-30.2,7.6l5.5,9.7c0.3,0.5,0.2,1.1-0.2,1.5c-0.4,0.4-1,0.5-1.5,0.2
	l-9.7-5.5l-7.6,30.2C120.5,316,120,316.4,119.4,316.4z"/>
<polygon class="st4" points="76.4,270.6 106.6,263.1 119.3,270.6 "/>
<polygon class="st4" points="162.3,270.6 132,278.2 119.3,270.6 "/>
<polygon class="st4" points="119.3,313.6 111.8,283.4 119.3,270.6 "/>
<polygon class="st4" points="119.3,227.7 126.9,257.9 119.3,270.6 "/>
<polygon class="st4" points="101.4,252.7 112.9,259.4 119.3,270.6 "/>
<polygon class="st4" points="137.4,288.7 125.9,282 119.3,270.6 "/>
<polygon class="st4" points="101.4,288.7 108.1,277.2 119.3,270.6 "/>
<polygon class="st4" points="137.4,252.7 130.7,264.2 119.3,270.6 "/>
</svg>
